# xmcd
#
# Track frame offsets:
#	150
#	10000
#	28353
#	50914
#	67924
#	86211
#	109000
#	123155
#	145449
#	161363
#	178871
#	198171
#
# Disc length: 2878 seconds
#
# Revision: 0
# Processed by: cddbd v1.5.2PL0 Copyright (c) Steve Scherf et al.
# Submitted via: EasyCDDAExtractor 9.0.0.1
#
DISCID=a50b3c0c
DTITLE=Red House - Chihuahua Boogie
DYEAR=2010
DGENRE=Blues
TTITLE0=Philip Marlowe's Blues
TTITLE1=Tiger's Running Wild
TTITLE2=Black Cat Bone
TTITLE3=Took It All Away
TTITLE4=Blue Lou's Saxophone
TTITLE5=I Want To Be Loved
TTITLE6=American Way Of Life
TTITLE7=Love's A Looney Toon
TTITLE8=Red House Rock and Roll
TTITLE9=Chihuahua Boogie
TTITLE10=Philip Marlowe's Blues (Instrumental)
TTITLE11=Love's A Looney Toon (Solos)
EXTD=
EXTT0=
EXTT1=
EXTT2=
EXTT3=
EXTT4=
EXTT5=
EXTT6=
EXTT7=
EXTT8=
EXTT9=
EXTT10=
EXTT11=
PLAYORDER=
